<svg xmlns="http://www.w3.org/2000/svg" xmlns:xlink="http://www.w3.org/1999/xlink" version="1.1" width="1000" height="1000" viewBox="0 0 1000 1000" xml:space="preserve">
<desc>Created with Fabric.js 3.5.0</desc>
<defs>
</defs>
<rect x="0" y="0" width="100%" height="100%" fill="#ffffff"/>
<g transform="matrix(-45.4545 0 0 45.4545 499.9995 499.9995)" id="977474">
<path style="stroke: none; stroke-width: 1; stroke-dasharray: none; stroke-linecap: butt; stroke-dashoffset: 0; stroke-linejoin: round; stroke-miterlimit: 2; is-custom-font: none; font-file-url: none; fill: rgb(0,0,0); fill-rule: nonzero; opacity: 1;" vector-effect="non-scaling-stroke" transform=" translate(-12, -12)" d="m 15.97 17.031 c -1.479 1.238 -3.384 1.985 -5.461 1.985 c -4.697 0 -8.509 -3.812 -8.509 -8.508 s 3.812 -8.508 8.509 -8.508 c 4.695 0 8.508 3.812 8.508 8.508 c 0 2.078 -0.747 3.984 -1.985 5.461 l 4.749 4.75 c 0.146 0.146 0.219 0.338 0.219 0.531 c 0 0.587 -0.537 0.75 -0.75 0.75 c -0.192 0 -0.384 -0.073 -0.531 -0.22 z m -5.461 -13.53 c -3.868 0 -7.007 3.14 -7.007 7.007 s 3.139 7.007 7.007 7.007 c 3.866 0 7.007 -3.14 7.007 -7.007 s -3.141 -7.007 -7.007 -7.007 z" stroke-linecap="round"/>
</g>
</svg>